<svg width="142" height="34" viewBox="0 0 142 34" fill="none" xmlns="http://www.w3.org/2000/svg">
<path d="M6.83984 13.1992H11.8672C12.7109 13.1992 13.2969 13 13.625 12.6016C13.9531 12.1797 14.1172 11.3008 14.1172 9.96484H15.5586V18.6484H14.1172C14.1172 17.875 14.082 17.2539 14.0117 16.7852C13.9648 16.3164 13.8594 15.9531 13.6953 15.6953C13.5312 15.4375 13.2969 15.2734 12.9922 15.2031C12.6875 15.1094 12.3008 15.0625 11.832 15.0625H6.83984V23.0781C6.83984 23.7812 6.88672 24.3438 6.98047 24.7656C7.07422 25.1875 7.26172 25.5156 7.54297 25.75C7.84766 25.9844 8.25781 26.1367 8.77344 26.207C9.3125 26.2539 10.0156 26.2773 10.8828 26.2773H13.4844C14.375 26.2773 15.1133 26.2188 15.6992 26.1016C16.3086 25.9609 16.8125 25.7148 17.2109 25.3633C17.6328 25.0352 17.9844 24.5781 18.2656 23.9922C18.5703 23.3828 18.8633 22.6094 19.1445 21.6719H20.6914C20.3867 22.6328 20.0703 23.6641 19.7422 24.7656C19.4375 25.8438 19.1797 26.8516 18.9688 27.7891C17.4688 27.7656 15.9102 27.7539 14.293 27.7539C12.6758 27.7305 11.0469 27.7188 9.40625 27.7188C7.78906 27.7188 6.19531 27.7305 4.625 27.7539C3.05469 27.7539 1.56641 27.7656 0.160156 27.7891V26.5234C0.886719 26.5234 1.47266 26.4766 1.91797 26.3828C2.38672 26.2891 2.75 26.1133 3.00781 25.8555C3.24219 25.6211 3.40625 25.2812 3.5 24.8359C3.59375 24.3672 3.64062 23.7812 3.64062 23.0781V5.85156C3.64062 5.14844 3.59375 4.59766 3.5 4.19922C3.40625 3.77734 3.24219 3.46094 3.00781 3.25C2.75 3.03906 2.38672 2.89844 1.91797 2.82812C1.47266 2.75781 0.886719 2.72266 0.160156 2.72266V1.42188C1.51953 1.46875 2.96094 1.50391 4.48438 1.52734C6.00781 1.52734 7.54297 1.52734 9.08984 1.52734C10.6367 1.52734 12.1602 1.52734 13.6602 1.52734C15.1602 1.50391 16.5664 1.46875 17.8789 1.42188V7.39844H16.4727C16.3555 6.41406 16.2148 5.62891 16.0508 5.04297C15.9102 4.45703 15.6641 4 15.3125 3.67188C14.9844 3.36719 14.5273 3.16797 13.9414 3.07422C13.3555 2.95703 12.5938 2.89844 11.6562 2.89844H6.83984V13.1992ZM42.7484 28.0703C43.8734 29.5469 45.3266 30.5664 47.1078 31.1289C48.9125 31.7148 51.1859 31.8789 53.9281 31.6211V32.8516C52.4047 33.1562 50.9164 33.2969 49.4633 33.2734C48.0102 33.2734 46.6273 33.1094 45.3148 32.7812C43.9789 32.4062 42.7602 31.8555 41.6586 31.1289C40.557 30.4023 39.6078 29.4531 38.8109 28.2812C37.1234 28.1641 35.5531 27.7188 34.1 26.9453C32.6469 26.1484 31.3695 25.1406 30.268 23.9219C29.1898 22.6797 28.3344 21.2734 27.7016 19.7031C27.0922 18.1328 26.7875 16.4805 26.7875 14.7461C26.7875 13.0117 27.1039 11.3125 27.7367 9.64844C28.3695 7.98437 29.2602 6.49609 30.4086 5.18359C31.557 3.87109 32.9398 2.81641 34.557 2.01953C36.1977 1.19922 38.0023 0.789062 39.9711 0.789062C41.7523 0.789062 43.4281 1.16406 44.9984 1.91406C46.5922 2.66406 47.975 3.66016 49.1469 4.90234C50.3422 6.16797 51.2797 7.63281 51.9594 9.29688C52.6391 10.9375 52.9789 12.6602 52.9789 14.4648C52.9789 15.9883 52.7328 17.4883 52.2406 18.9648C51.7719 20.418 51.0922 21.7656 50.2016 23.0078C49.3109 24.2266 48.2328 25.293 46.9672 26.207C45.7016 27.0977 44.2953 27.7188 42.7484 28.0703ZM49.2875 15.5195C49.2875 14.1367 49.0883 12.6836 48.6898 11.1602C48.2914 9.61328 47.682 8.18359 46.8617 6.87109C46.0648 5.58203 45.0453 4.51562 43.8031 3.67188C42.5844 2.80469 41.1547 2.37109 39.5141 2.37109C38.1781 2.37109 36.9477 2.65234 35.8227 3.21484C34.7211 3.77734 33.7719 4.55078 32.975 5.53516C32.1547 6.54297 31.5219 7.73828 31.0766 9.12109C30.6547 10.5039 30.4438 12.0156 30.4438 13.6562C30.4438 15.0625 30.643 16.5508 31.0414 18.1211C31.4398 19.668 32.0492 21.0859 32.8695 22.375C33.6898 23.6875 34.7094 24.7656 35.9281 25.6094C37.1703 26.4531 38.6234 26.875 40.2875 26.875C41.6938 26.875 42.9477 26.6055 44.0492 26.0664C45.1742 25.5039 46.1234 24.7188 46.8969 23.7109C47.6703 22.7031 48.2563 21.5078 48.6547 20.125C49.0766 18.7188 49.2875 17.1836 49.2875 15.5195ZM72.5047 25.5391C71.3797 26.4531 70.3367 27.1562 69.3758 27.6484C68.4383 28.1406 67.325 28.3867 66.0359 28.3867C65.5438 28.3867 65.0516 28.3047 64.5594 28.1406C64.0672 27.9766 63.6219 27.707 63.2234 27.332C62.825 26.957 62.4969 26.4883 62.2391 25.9258C62.0047 25.3398 61.8875 24.625 61.8875 23.7812V14.1484C61.8875 13.3984 61.7469 12.918 61.4656 12.707C61.2078 12.4961 60.6219 12.3555 59.7078 12.2852V11.1953C60.3406 11.1953 61.1609 11.1602 62.1688 11.0898C63.1766 11.0195 64.1375 10.9492 65.0516 10.8789C65.0047 11.3477 64.9695 11.9219 64.9461 12.6016C64.9227 13.2812 64.9109 13.7969 64.9109 14.1484V21.8828C64.9109 23.6641 65.1102 24.8125 65.5086 25.3281C65.9305 25.8438 66.5867 26.1016 67.4773 26.1016C68.2039 26.1016 69.0477 25.8906 70.0086 25.4688C70.993 25.0469 71.8367 24.4844 72.5398 23.7812V14.1484C72.5398 13.4219 72.3523 12.9531 71.9773 12.7422C71.6023 12.5078 70.9461 12.3555 70.0086 12.2852V11.1953C70.618 11.1953 71.4852 11.1602 72.6102 11.0898C73.7586 11.0195 74.7898 10.9492 75.7039 10.8789C75.657 11.3477 75.6219 11.9219 75.5984 12.6016C75.575 13.2812 75.5633 13.7969 75.5633 14.1484V24.9766C75.5633 25.6094 75.7156 25.9844 76.0203 26.1016C76.325 26.2188 76.993 26.2422 78.0242 26.1719V27.2617C77.7898 27.3086 77.4734 27.3789 77.075 27.4727C76.7 27.5664 76.3016 27.6602 75.8797 27.7539C75.4578 27.8711 75.0242 27.9883 74.5789 28.1055C74.157 28.2461 73.782 28.3633 73.4539 28.457C73.2195 28.5508 72.9969 28.5156 72.7859 28.3516C72.5984 28.2109 72.5047 28.0352 72.5047 27.8242V25.5391ZM86.6164 17.5234C86.593 17.6172 86.5695 17.8867 86.5461 18.332C86.5461 18.7773 86.5695 19.3164 86.6164 19.9492C86.7102 21.6836 87.2023 23.125 88.093 24.2734C88.9836 25.3984 90.1789 25.9609 91.6789 25.9609C92.7336 25.9609 93.6594 25.7266 94.4563 25.2578C95.2766 24.7891 96.0031 24.168 96.6359 23.3945L97.7609 24.0625C97.0344 25.3281 96.0969 26.3711 94.9484 27.1914C93.8 27.9883 92.4875 28.3867 91.0109 28.3867C89.9563 28.3867 88.9719 28.1758 88.0578 27.7539C87.1672 27.3086 86.3938 26.7109 85.7375 25.9609C85.0578 25.1875 84.5305 24.2969 84.1555 23.2891C83.8039 22.2578 83.6281 21.1445 83.6281 19.9492C83.6281 18.4492 83.8156 17.1133 84.1906 15.9414C84.5656 14.7461 85.093 13.7383 85.7727 12.918C86.4289 12.0977 87.2141 11.4766 88.1281 11.0547C89.0656 10.6094 90.0734 10.3867 91.1516 10.3867C91.8781 10.3867 92.6164 10.5156 93.3664 10.7734C94.1164 11.0078 94.7844 11.3711 95.3703 11.8633C95.9563 12.3555 96.4367 12.9883 96.8117 13.7617C97.1867 14.5117 97.3859 15.4023 97.4094 16.4336C97.4094 16.6914 97.3977 16.8906 97.3742 17.0312C97.3742 17.1719 97.3391 17.2773 97.2688 17.3477C97.2219 17.418 97.1281 17.4648 96.9875 17.4883C96.8469 17.5117 96.6594 17.5234 96.425 17.5234H86.6164ZM93.5422 15.9766C93.8234 15.9766 94.0109 15.9414 94.1047 15.8711C94.2219 15.7773 94.2805 15.5781 94.2805 15.2734C94.2805 14.5234 93.9875 13.7852 93.4016 13.0586C92.8156 12.3086 92.0188 11.9336 91.0109 11.9336C89.8156 11.9336 88.8664 12.3086 88.1633 13.0586C87.4602 13.8086 87.0148 14.7812 86.8273 15.9766H93.5422ZM115.916 25.5391C114.791 26.4531 113.748 27.1562 112.787 27.6484C111.849 28.1406 110.736 28.3867 109.447 28.3867C108.955 28.3867 108.463 28.3047 107.97 28.1406C107.478 27.9766 107.033 27.707 106.634 27.332C106.236 26.957 105.908 26.4883 105.65 25.9258C105.416 25.3398 105.298 24.625 105.298 23.7812V14.1484C105.298 13.3984 105.158 12.918 104.877 12.707C104.619 12.4961 104.033 12.3555 103.119 12.2852V11.1953C103.752 11.1953 104.572 11.1602 105.58 11.0898C106.588 11.0195 107.548 10.9492 108.463 10.8789C108.416 11.3477 108.38 11.9219 108.357 12.6016C108.334 13.2812 108.322 13.7969 108.322 14.1484V21.8828C108.322 23.6641 108.521 24.8125 108.92 25.3281C109.341 25.8438 109.998 26.1016 110.888 26.1016C111.615 26.1016 112.459 25.8906 113.42 25.4688C114.404 25.0469 115.248 24.4844 115.951 23.7812V14.1484C115.951 13.4219 115.763 12.9531 115.388 12.7422C115.013 12.5078 114.357 12.3555 113.42 12.2852V11.1953C114.029 11.1953 114.896 11.1602 116.021 11.0898C117.17 11.0195 118.201 10.9492 119.115 10.8789C119.068 11.3477 119.033 11.9219 119.009 12.6016C118.986 13.2812 118.974 13.7969 118.974 14.1484V24.9766C118.974 25.6094 119.127 25.9844 119.431 26.1016C119.736 26.2188 120.404 26.2422 121.435 26.1719V27.2617C121.201 27.3086 120.884 27.3789 120.486 27.4727C120.111 27.5664 119.713 27.6602 119.291 27.7539C118.869 27.8711 118.435 27.9883 117.99 28.1055C117.568 28.2461 117.193 28.3633 116.865 28.457C116.63 28.5508 116.408 28.5156 116.197 28.3516C116.009 28.2109 115.916 28.0352 115.916 27.8242V25.5391ZM130.027 17.5234C130.004 17.6172 129.98 17.8867 129.957 18.332C129.957 18.7773 129.98 19.3164 130.027 19.9492C130.121 21.6836 130.613 23.125 131.504 24.2734C132.395 25.3984 133.59 25.9609 135.09 25.9609C136.145 25.9609 137.07 25.7266 137.867 25.2578C138.688 24.7891 139.414 24.168 140.047 23.3945L141.172 24.0625C140.445 25.3281 139.508 26.3711 138.359 27.1914C137.211 27.9883 135.898 28.3867 134.422 28.3867C133.367 28.3867 132.383 28.1758 131.469 27.7539C130.578 27.3086 129.805 26.7109 129.148 25.9609C128.469 25.1875 127.941 24.2969 127.566 23.2891C127.215 22.2578 127.039 21.1445 127.039 19.9492C127.039 18.4492 127.227 17.1133 127.602 15.9414C127.977 14.7461 128.504 13.7383 129.184 12.918C129.84 12.0977 130.625 11.4766 131.539 11.0547C132.477 10.6094 133.484 10.3867 134.562 10.3867C135.289 10.3867 136.027 10.5156 136.777 10.7734C137.527 11.0078 138.195 11.3711 138.781 11.8633C139.367 12.3555 139.848 12.9883 140.223 13.7617C140.598 14.5117 140.797 15.4023 140.82 16.4336C140.82 16.6914 140.809 16.8906 140.785 17.0312C140.785 17.1719 140.75 17.2773 140.68 17.3477C140.633 17.418 140.539 17.4648 140.398 17.4883C140.258 17.5117 140.07 17.5234 139.836 17.5234H130.027ZM136.953 15.9766C137.234 15.9766 137.422 15.9414 137.516 15.8711C137.633 15.7773 137.691 15.5781 137.691 15.2734C137.691 14.5234 137.398 13.7852 136.812 13.0586C136.227 12.3086 135.43 11.9336 134.422 11.9336C133.227 11.9336 132.277 12.3086 131.574 13.0586C130.871 13.8086 130.426 14.7812 130.238 15.9766H136.953Z" fill="white"/>
</svg>
